HIERARCHY
ROOT hip
{
  OFFSET 0 0 0
  CHANNELS 6 Xposition Yposition Zposition Zrotation Yrotation Xrotation
  JOINT abdomen
  {
    OFFSET 0 20.6881 -0.73152
    CHANNELS 3 Zrotation Xrotation Yrotation
    JOINT chest
    {
      OFFSET 0 11.7043 -0.48768
      CHANNELS 3 Zrotation Xrotation Yrotation
      JOINT neck
      {
        OFFSET 0 22.1894 -2.19456
        CHANNELS 3 Zrotation Xrotation Yrotation
        JOINT head
        {
          OFFSET -0.24384 7.07133 1.2192
          CHANNELS 3 Zrotation Xrotation Yrotation
          JOINT leftEye
          {
            OFFSET 4.14528 8.04674 8.04672
            CHANNELS 3 Zrotation Xrotation Yrotation
            End Site
            {
              OFFSET 1 0 0
            }
          }
          JOINT rightEye
          {
            OFFSET -3.6576 8.04674 8.04672
            CHANNELS 3 Zrotation Xrotation Yrotation
            End Site
            {
              OFFSET 1 0 0
            }
          }
        }
      }
      JOINT rCollar
      {
        OFFSET -2.68224 19.2634 -4.8768
        CHANNELS 3 Zrotation Xrotation Yrotation
        JOINT rShldr
        {
          OFFSET -8.77824 -1.95073 1.46304
          CHANNELS 3 Zrotation Xrotation Yrotation
          JOINT rForeArm
          {
            OFFSET -28.1742 -1.7115 0.48768
            CHANNELS 3 Zrotation Xrotation Yrotation
            JOINT rHand
            {
              OFFSET -22.5879 0.773209 7.07136
              CHANNELS 3 Zrotation Xrotation Yrotation
              JOINT rThumb1
              {
                OFFSET -1.2192 -0.487915 3.41376
                CHANNELS 3 Zrotation Xrotation Yrotation
                JOINT rThumb2
                {
                  OFFSET -3.37035 -0.52449 3.41376
                  CHANNELS 3 Zrotation Xrotation Yrotation
                  End Site
                  {
                    OFFSET -1.78271 -1.18214 1.43049
                  }
                }
              }
              JOINT rIndex1
              {
                OFFSET -7.75947 0.938293 5.60832
                CHANNELS 3 Zrotation Xrotation Yrotation
                JOINT rIndex2
                {
                  OFFSET -2.54057 -0.884171 1.56538
                  CHANNELS 3 Zrotation Xrotation Yrotation
                  End Site
                  {
                    OFFSET -1.62519 -0.234802 1.16502
                  }
                }
              }
              JOINT rMid1
              {
                OFFSET -8.24714 1.18213 3.41376
                CHANNELS 3 Zrotation Xrotation Yrotation
                JOINT rMid2
                {
                  OFFSET -3.10165 -0.590103 1.0647
                  CHANNELS 3 Zrotation Xrotation Yrotation
                  End Site
                  {
                    OFFSET -2.48547 -0.328903 0.83742
                  }
                }
              }
              JOINT rRing1
              {
                OFFSET -8.82822 0.546677 1.51678
                CHANNELS 3 Zrotation Xrotation Yrotation
                JOINT rRing2
                {
                  OFFSET -2.60934 -0.819778 -0.0198488
                  CHANNELS 3 Zrotation Xrotation Yrotation
                  End Site
                  {
                    OFFSET -2.33842 -0.294052 0.168128
                  }
                }
              }
              JOINT rPinky1
              {
                OFFSET -8.27202 -0.0477905 -0.4584
                CHANNELS 3 Zrotation Xrotation Yrotation
                JOINT rPinky2
                {
                  OFFSET -1.82734 -0.647385 -0.700984
                  CHANNELS 3 Zrotation Xrotation Yrotation
                  End Site
                  {
                    OFFSET -1.69225 -0.51767 -0.607171
                  }
                }
              }
            }
          }
        }
      }
      JOINT lCollar
      {
        OFFSET 2.68224 19.2634 -4.8768
        CHANNELS 3 Zrotation Xrotation Yrotation
        JOINT lShldr
        {
          OFFSET 8.77824 -1.95073 1.46304
          CHANNELS 3 Zrotation Xrotation Yrotation
          JOINT lForeArm
          {
            OFFSET 28.1742 -1.7115 0.48768
            CHANNELS 3 Zrotation Xrotation Yrotation
            JOINT lHand
            {
              OFFSET 22.5879 0.773209 7.07136
              CHANNELS 3 Zrotation Xrotation Yrotation
              JOINT lThumb1
              {
                OFFSET 1.2192 -0.487915 3.41376
                CHANNELS 3 Zrotation Xrotation Yrotation
                JOINT lThumb2
                {
                  OFFSET 3.37035 -0.52449 3.41376
                  CHANNELS 3 Zrotation Xrotation Yrotation
                  End Site
                  {
                    OFFSET 1.78271 -1.18214 1.43049
                  }
                }
              }
              JOINT lIndex1
              {
                OFFSET 7.75947 0.938293 5.60832
                CHANNELS 3 Zrotation Xrotation Yrotation
                JOINT lIndex2
                {
                  OFFSET 2.54057 -0.884171 1.56538
                  CHANNELS 3 Zrotation Xrotation Yrotation
                  End Site
                  {
                    OFFSET 1.62519 -0.234802 1.16502
                  }
                }
              }
              JOINT lMid1
              {
                OFFSET 8.24714 1.18213 3.41376
                CHANNELS 3 Zrotation Xrotation Yrotation
                JOINT lMid2
                {
                  OFFSET 3.10165 -0.590103 1.0647
                  CHANNELS 3 Zrotation Xrotation Yrotation
                  End Site
                  {
                    OFFSET 2.48547 -0.328903 0.83742
                  }
                }
              }
              JOINT lRing1
              {
                OFFSET 8.82822 0.546677 1.51678
                CHANNELS 3 Zrotation Xrotation Yrotation
                JOINT lRing2
                {
                  OFFSET 2.60934 -0.819778 -0.0198488
                  CHANNELS 3 Zrotation Xrotation Yrotation
                  End Site
                  {
                    OFFSET 2.33842 -0.294052 0.168128
                  }
                }
              }
              JOINT lPinky1
              {
                OFFSET 8.27202 -0.0477905 -0.4584
                CHANNELS 3 Zrotation Xrotation Yrotation
                JOINT lPinky2
                {
                  OFFSET 1.82734 -0.647385 -0.700984
                  CHANNELS 3 Zrotation Xrotation Yrotation
                  End Site
                  {
                    OFFSET 1.69225 -0.51767 -0.607171
                  }
                }
              }
            }
          }
        }
      }
    }
  }
  JOINT rButtock
  {
    OFFSET -8.77824 4.35084 1.2192
    CHANNELS 3 Zrotation Xrotation Yrotation
    JOINT rThigh
    {
      OFFSET 0 -1.70687 -2.19456
      CHANNELS 3 Zrotation Xrotation Yrotation
      JOINT rShin
      {
        OFFSET 0 -36.8199 0.73152
        CHANNELS 3 Zrotation Xrotation Yrotation
        JOINT rFoot
        {
          OFFSET 0.73152 -45.1104 -5.12064
          CHANNELS 3 Zrotation Xrotation Yrotation
          End Site
          {
            OFFSET -1.1221 -3.69964 12.103
          }
        }
      }
    }
  }
  JOINT lButtock
  {
    OFFSET 8.77824 4.35084 1.2192
    CHANNELS 3 Zrotation Xrotation Yrotation
    JOINT lThigh
    {
      OFFSET 0 -1.70687 -2.19456
      CHANNELS 3 Zrotation Xrotation Yrotation
      JOINT lShin
      {
        OFFSET 0 -36.8199 0.73152
        CHANNELS 3 Zrotation Xrotation Yrotation
        JOINT lFoot
        {
          OFFSET -0.73152 -45.1104 -5.12064
          CHANNELS 3 Zrotation Xrotation Yrotation
          End Site
          {
            OFFSET 1.1221 -3.69964 12.103
          }
        }
      }
    }
  }
}
MOTION
Frames:	4
Frame Time:	0.00833333
-65.3076 85.2723 -9.9475 14.0658 94.5189 29.6035 -2.76265 25.1888 -1.85676 0.606188 -6.74298 -0.36425 5.81988 15.6302 -0.716034 -5.81838 -32.3577 -3.16179 -0.0 0.0 0.0 -0.0 0.0 0.0 -8.30824e-14 1.90307e-12 1.20134e-13 85.1227 34.6719 -22.591 -18.156 -10.8549 34.3724 6.02825e-05 -0.0280617 -0.00395537 2.37653e-09 8.14019e-10 -8.95895e-10 4.10121e-09 1.4119e-09 -1.56144e-09 2.37653e-09 8.14018e-10 -8.959e-10 7.73091 5.47488 0.417314 2.37653e-09 8.14015e-10 -8.95893e-10 2.90554 0.965183 0.102902 2.37654e-09 8.14013e-10 -8.95897e-10 10.2786 0.731801 0.0259123 2.37652e-09 8.14012e-10 -8.95885e-10 2.22167 -0.733487 -0.20892 -8.31268e-14 1.90306e-12 1.19946e-13 -72.7013 32.1274 8.40032 25.5829 -22.4067 -55.1212 0.00127743 -0.74985 0.105388 3.62677e-09 -3.6335e-09 -6.61889e-09 6.27742e-09 -6.27926e-09 -1.14351e-08 3.62676e-09 -3.6335e-09 -6.61888e-09 -7.73091 5.47488 -0.417314 3.62677e-09 -3.6335e-09 -6.61889e-09 -2.90554 0.965183 -0.102902 3.62676e-09 -3.6335e-09 -6.61888e-09 -10.2786 0.731801 -0.0259123 3.62677e-09 -3.6335e-09 -6.61889e-09 -2.22167 -0.733487 0.20892 -2.03217e-16 0.0 -3.88251e-19 0.201111 -37.4849 2.09159 -0.138407 24.7378 0.480744 -3.29183 -11.8136 -9.17812 2.03217e-16 0.0 3.88251e-19 1.40637 -20.3244 0.351668 0.0709608 29.4774 -0.754415 -1.81621 -13.4743 -7.82868
-64.1012 85.382 -9.98118 7.4507 95.1772 23.0337 -2.24843 25.0532 -2.0389 0.753128 -6.70848 -0.377766 5.97968 15.6049 -1.02744 -6.55786 -32.2494 -3.99927 -0.0 0.0 0.0 -0.0 0.0 0.0 -6.79664e-14 2.05852e-12 1.31751e-13 85.3087 34.4364 -23.1408 -18.0427 -10.7324 34.1166 -2.09481e-05 0.482821 0.0678443 2.26774e-09 7.52342e-10 -5.87651e-10 3.91481e-09 1.30472e-09 -1.02729e-09 2.26775e-09 7.52341e-10 -5.87659e-10 7.73091 5.47488 0.417314 2.26775e-09 7.52337e-10 -5.8765e-10 2.90554 0.965183 0.102902 2.26776e-09 7.52338e-10 -5.87655e-10 10.2786 0.731801 0.0259123 2.26774e-09 7.52334e-10 -5.8764e-10 2.22167 -0.733487 -0.20892 -6.79291e-14 2.05852e-12 1.31583e-13 -73.2174 32.9182 8.68575 25.6111 -22.4736 -55.2319 0.00098483 -0.632225 0.0888542 3.07083e-09 -3.07081e-09 -5.62998e-09 5.31516e-09 -5.30714e-09 -9.72749e-09 3.07083e-09 -3.07081e-09 -5.62998e-09 -7.73091 5.47488 -0.417314 3.07083e-09 -3.07081e-09 -5.62998e-09 -2.90554 0.965183 -0.102902 3.07083e-09 -3.07081e-09 -5.62998e-09 -10.2786 0.731801 -0.0259123 3.07083e-09 -3.07081e-09 -5.62999e-09 -2.22167 -0.733487 0.20892 -2.03217e-16 0.0 -3.88251e-19 -0.0980335 -37.3895 2.75357 -0.129634 23.6964 0.463555 -3.50555 -11.2071 -10.2178 2.03217e-16 0.0 3.88251e-19 1.42305 -19.9902 0.615153 0.0798461 29.7232 -0.746648 -2.10704 -12.3649 -9.28973
-62.8832 85.4379 -10.0286 1.7516 95.9275 17.313 -1.76222 24.9703 -2.21604 0.89601 -6.68466 -0.391729 6.14148 15.5529 -1.33953 -7.30758 -32.1048 -4.83978 -0.0 0.0 0.0 -0.0 0.0 0.0 -5.80311e-14 2.00986e-12 1.40184e-13 85.5256 34.2123 -23.704 -17.9473 -10.6302 33.9015 -0.000812859 0.948464 0.133303 2.03423e-09 6.34765e-10 -1.79486e-10 3.51315e-09 1.10047e-09 -3.19409e-10 2.03424e-09 6.34764e-10 -1.79497e-10 7.73091 5.47488 0.417314 2.03423e-09 6.34759e-10 -1.79485e-10 2.90554 0.965183 0.102902 2.03424e-09 6.34763e-10 -1.79492e-10 10.2786 0.731801 0.0259123 2.03423e-09 6.34757e-10 -1.79473e-10 2.22167 -0.733487 -0.20892 -5.79143e-14 2.00986e-12 1.40034e-13 -73.7909 33.6345 9.05039 25.6085 -22.4682 -55.2112 0.000385108 -0.411246 0.0577965 2.28745e-09 -2.24253e-09 -4.16614e-09 3.95935e-09 -3.87612e-09 -7.19934e-09 2.28745e-09 -2.24253e-09 -4.16614e-09 -7.73091 5.47488 -0.417314 2.28745e-09 -2.24253e-09 -4.16614e-09 -2.90554 0.965183 -0.102902 2.28745e-09 -2.24253e-09 -4.16615e-09 -10.2786 0.731801 -0.0259123 2.28745e-09 -2.24253e-09 -4.16615e-09 -2.22167 -0.733487 0.20892 -2.03217e-16 0.0 -3.88251e-19 -0.467274 -37.2322 3.34841 -0.124614 22.9926 0.448116 -3.65484 -10.4875 -11.1731 2.03217e-16 0.0 3.88251e-19 1.42932 -19.7676 0.886448 0.0921509 30.2223 -0.742618 -2.34632 -11.1469 -10.7986
-61.6548 85.4329 -10.0866 -3.097 96.7597 12.3761 -1.32837 24.9458 -2.37242 1.03675 -6.66556 -0.402161 6.29295 15.4655 -1.63896 -8.02547 -31.9284 -5.64448 -0.0 0.0 0.0 -0.0 0.0 0.0 -6.44623e-14 1.61992e-12 1.51126e-13 85.788 34.0426 -24.2878 -17.8735 -10.5512 33.7369 -0.00215941 1.32676 0.186497 1.78522e-09 4.97232e-10 1.86024e-10 3.08416e-09 8.61825e-10 3.14698e-10 1.78523e-09 4.97232e-10 1.86012e-10 7.73091 5.47488 0.417314 1.78522e-09 4.97227e-10 1.86024e-10 2.90554 0.965183 0.102902 1.78523e-09 4.97233e-10 1.86017e-10 10.2786 0.731801 0.0259123 1.78521e-09 4.97226e-10 1.86037e-10 2.22167 -0.733487 -0.20892 -6.43048e-14 1.61992e-12 1.50977e-13 -74.4076 34.2331 9.50349 25.5828 -22.4079 -55.1001 5.68966e-05 -0.215383 0.0302703 1.6582e-09 -1.49698e-09 -2.84186e-09 2.86997e-09 -2.58784e-09 -4.91173e-09 1.65819e-09 -1.49698e-09 -2.84185e-09 -7.73091 5.47488 -0.417314 1.6582e-09 -1.49698e-09 -2.84186e-09 -2.90554 0.965183 -0.102902 1.65819e-09 -1.49698e-09 -2.84186e-09 -10.2786 0.731801 -0.0259123 1.6582e-09 -1.49698e-09 -2.84187e-09 -2.22167 -0.733487 0.20892 -2.03217e-16 0.0 -3.88251e-19 -0.891359 -36.9999 3.74691 -0.122525 22.6119 0.43395 -3.70576 -9.71402 -11.884 2.03217e-16 0.0 3.88251e-19 1.42486 -19.6676 1.13277 0.107978 31.0086 -0.745982 -2.49692 -9.80076 -12.2495
